<svg xmlns="http://www.w3.org/2000/svg" xmlns:xlink="http://www.w3.org/1999/xlink" width="500" zoomAndPan="magnify" viewBox="0 0 375 374.999991" height="500" preserveAspectRatio="xMidYMid meet" version="1.0"><defs><g/><clipPath id="c5c98510dc"><path d="M 94 96 L 281.476562 96 L 281.476562 279 L 94 279 Z M 94 96 " clip-rule="nonzero"/></clipPath></defs><rect x="-37.5" width="450" fill="#ffffff" y="-37.499999" height="449.999989" fill-opacity="1"/><rect x="-37.5" width="450" fill="#ffffff" y="-37.499999" height="449.999989" fill-opacity="1"/><g clip-path="url(#c5c98510dc)"><path fill="#000000" d="M 109.324219 267.191406 C 108.972656 265.460938 108.023438 263.101562 107.894531 262.609375 C 107.300781 260.039062 106.746094 257.460938 106.199219 254.867188 C 105.195312 250.042969 103.878906 245.292969 102.859375 240.484375 C 102.183594 237.242188 101.378906 227.132812 98.472656 223.070312 C 98.976562 232.890625 101.570312 258.871094 109.324219 267.191406 Z M 111.078125 172.230469 C 111.699219 168.769531 111.824219 165.210938 112.742188 161.824219 C 110.640625 161.351562 108.566406 160.742188 106.429688 160.523438 C 101.976562 176.617188 98.375 194.113281 102.792969 210.535156 C 105.734375 208.933594 108.832031 207.722656 112.125 207.074219 C 107.21875 196.734375 108.523438 184.375 110.679688 173.421875 C 110.722656 173.222656 110.789062 173.046875 110.859375 172.894531 C 110.914062 172.730469 110.980469 172.582031 111.066406 172.433594 C 111.066406 172.363281 111.066406 172.296875 111.078125 172.230469 Z M 115.324219 269.757812 C 115.488281 269.441406 115.640625 269.101562 115.785156 268.777344 C 112.433594 259.292969 111.066406 248.894531 108.535156 239.140625 C 107.21875 234.070312 105.929688 229.007812 104.730469 223.914062 C 104.488281 222.824219 104.464844 221.632812 104.378906 220.53125 C 104.082031 216.132812 99.96875 217.082031 98.539062 220.246094 C 102.328125 223.082031 103.144531 231.589844 103.863281 235.238281 C 106.144531 246.582031 109.855469 257.800781 111.835938 269.15625 C 112.921875 269.683594 114.074219 269.917969 115.324219 269.757812 Z M 116.984375 205.5625 C 117.621094 204.980469 118.242188 204.503906 118.871094 204.121094 C 115.542969 194.882812 115.148438 185.335938 115.773438 175.601562 C 115.324219 175.515625 114.878906 175.472656 114.429688 175.460938 C 112.5 185.558594 111.386719 196.976562 116.277344 206.3125 C 116.507812 206.050781 116.722656 205.792969 116.984375 205.5625 Z M 128.765625 268.492188 C 128.765625 268.480469 128.785156 268.449219 128.785156 268.4375 C 126.992188 265.492188 125.902344 261.933594 125.105469 258.890625 C 122.332031 247.507812 118.84375 236.316406 115.851562 224.984375 C 114.847656 221.140625 113.339844 215.453125 114.238281 210.789062 C 114.226562 210.789062 114.199219 210.800781 114.171875 210.800781 C 111.308594 211.160156 108.621094 212.136719 106.050781 213.414062 C 107.339844 214.769531 108.046875 216.839844 108.289062 218.535156 C 109.457031 226.882812 111.699219 234.929688 113.777344 243.132812 C 115.851562 251.40625 116.972656 260.148438 119.875 268.164062 C 120.0625 268.722656 120.023438 269.199219 119.820312 269.59375 C 119.78125 269.757812 119.738281 269.917969 119.671875 270.070312 C 119.53125 270.355469 119.398438 270.640625 119.265625 270.925781 C 119.300781 271.019531 119.332031 271.113281 119.355469 271.222656 C 119.550781 272.144531 120.039062 272.746094 120.6875 273.082031 C 121.8125 273.328125 122.96875 273.367188 124.027344 273.164062 C 125.238281 272.800781 126.417969 272.105469 127.277344 271.25 C 127.617188 270.773438 127.871094 270.234375 128.050781 269.574219 C 128.183594 269.078125 128.445312 268.722656 128.765625 268.492188 Z M 129.039062 257.800781 C 129.976562 261.386719 133.171875 269.878906 136.996094 269.863281 C 128.851562 250.195312 122.304688 230.242188 119.859375 209.027344 C 118.871094 209.882812 118.21875 211.226562 118.175781 213.113281 C 118.121094 216.144531 118.515625 219.078125 119.277344 222 C 122.441406 233.949219 126.109375 245.785156 129.039062 257.800781 Z M 141.261719 265.980469 C 144.359375 260.039062 141.238281 253.445312 139.234375 247.65625 C 136.613281 240.035156 135.925781 232.019531 133.945312 224.238281 C 132.734375 219.511719 131.402344 213.632812 127.859375 210.03125 C 126.164062 208.296875 123.773438 207.601562 121.789062 208.0625 C 124.125 229.398438 130.714844 249.410156 138.882812 269.132812 C 139.675781 268.535156 140.457031 267.511719 141.261719 265.980469 Z M 253.742188 207.371094 C 250.789062 206.402344 247.585938 209.609375 246.296875 211.746094 C 243.976562 215.597656 242.546875 219.863281 241.519531 224.238281 C 239.507812 232.714844 238.460938 241.234375 235.570312 249.476562 C 233.667969 254.910156 229.972656 265.164062 236.617188 269.035156 C 244.847656 249.125 251.484375 228.921875 253.742188 207.371094 Z M 256.617188 220.070312 C 257.226562 216.90625 258.21875 212.246094 256.15625 209.3125 C 255.992188 209.070312 255.816406 208.847656 255.625 208.660156 C 253.222656 230 246.667969 250.042969 238.476562 269.808594 C 243.109375 270.464844 245.589844 260.953125 246.417969 257.800781 C 249.488281 245.199219 254.171875 232.792969 256.617188 220.070312 Z M 259.089844 206.457031 C 264.070312 197.097656 262.976562 185.613281 261.027344 175.460938 C 260.585938 175.472656 260.132812 175.515625 259.683594 175.601562 C 260.296875 185.296875 259.902344 194.816406 256.628906 204.011719 C 257.445312 204.472656 258.195312 205.113281 258.789062 205.972656 C 258.898438 206.136719 258.980469 206.292969 259.089844 206.457031 Z M 260.949219 158.035156 C 262.320312 157.78125 263.667969 157.425781 265.027344 157.128906 C 261.519531 146.789062 255.695312 137.078125 249.785156 127.964844 C 244.816406 120.277344 237.972656 114.054688 229.828125 109.855469 C 214.621094 102.035156 196.8125 99.535156 179.867188 101.191406 C 163.628906 102.765625 146.242188 106.878906 132.964844 116.839844 C 119.765625 126.730469 112.566406 140.980469 109.269531 156.867188 C 110.613281 157.152344 111.957031 157.492188 113.304688 157.792969 C 117.335938 143.636719 124.3125 131.007812 136.117188 121.800781 C 147.886719 112.617188 164.03125 106.699219 178.753906 104.890625 C 216.207031 100.273438 248.648438 123.304688 260.949219 158.035156 Z M 267.167969 218.535156 C 267.464844 216.332031 268.269531 214.613281 269.574219 213.5 C 266.964844 212.175781 264.210938 211.171875 261.289062 210.800781 C 261.222656 210.789062 261.148438 210.777344 261.082031 210.765625 C 261.046875 210.789062 260.992188 210.820312 260.9375 210.84375 C 262.117188 216.035156 260.566406 221.742188 259.074219 226.847656 C 255.96875 237.453125 252.96875 248.144531 250.347656 258.890625 C 249.542969 261.988281 247.96875 267.457031 245.210938 270.851562 C 246.800781 272.847656 249.039062 275.214844 251.375 272.933594 C 253.210938 271.164062 254.484375 268.953125 255.847656 266.820312 C 255.9375 266.671875 256.046875 266.550781 256.15625 266.441406 C 258.910156 258.097656 260.132812 249.09375 262.335938 240.59375 C 264.234375 233.242188 266.125 226.03125 267.167969 218.535156 Z M 272.652344 210.535156 C 277.082031 194.113281 273.480469 176.617188 269.015625 160.523438 C 266.878906 160.742188 264.804688 161.351562 262.714844 161.824219 C 263.636719 165.210938 263.761719 168.769531 264.375 172.230469 C 264.386719 172.296875 264.386719 172.363281 264.398438 172.433594 C 264.476562 172.582031 264.542969 172.730469 264.585938 172.894531 C 264.671875 173.046875 264.738281 173.222656 264.78125 173.421875 C 266.9375 184.375 268.242188 196.734375 263.339844 207.074219 C 266.625 207.722656 269.710938 208.933594 272.652344 210.535156 Z M 276.90625 220.246094 C 275.496094 217.082031 271.363281 216.132812 271.066406 220.53125 C 271 221.632812 270.96875 222.824219 270.714844 223.914062 C 269.53125 229.007812 268.226562 234.070312 266.910156 239.140625 C 264.398438 248.894531 263.011719 259.292969 259.660156 268.777344 C 259.824219 269.101562 259.957031 269.441406 260.121094 269.757812 C 261.371094 269.917969 262.539062 269.683594 263.625 269.15625 C 265.597656 257.800781 269.257812 246.558594 271.582031 235.238281 C 272.332031 231.589844 273.117188 223.082031 276.90625 220.246094 Z M 265.949219 267.402344 C 273.851562 259.292969 276.484375 232.945312 276.984375 223.046875 C 274.054688 227.105469 273.347656 237.222656 272.585938 240.484375 C 271.484375 245.277344 270.261719 250.042969 269.246094 254.867188 C 268.542969 258.265625 268.035156 261.902344 266.898438 265.175781 C 266.789062 265.503906 266.25 266.496094 265.949219 267.402344 Z M 281.074219 219.773438 C 281.183594 220.125 281.183594 220.433594 281.128906 220.734375 C 281.140625 220.761719 281.140625 220.789062 281.140625 220.816406 C 280.910156 231.480469 278.117188 271.535156 262.726562 273.882812 C 262.621094 273.992188 262.5 274.101562 262.359375 274.195312 C 260.3125 275.679688 257.511719 275.878906 255.1875 274.917969 C 255.1875 274.898438 255.175781 274.898438 255.164062 274.898438 C 254.28125 275.878906 253.277344 276.738281 252.097656 277.347656 C 248.113281 279.425781 244.421875 276.382812 242.050781 273.382812 C 241.585938 273.574219 241.113281 273.730469 240.605469 273.804688 C 235.273438 274.578125 229.90625 269.617188 229.121094 264.292969 C 227.910156 256.132812 231.945312 249.222656 233.859375 241.5 C 235.484375 234.917969 236.179688 228.109375 237.996094 221.546875 C 239.628906 215.683594 241.707031 209.476562 246.558594 205.453125 C 248.199219 204.085938 250.4375 203.214844 252.628906 203.128906 C 256.011719 193.734375 256.234375 184.046875 255.515625 174.136719 C 255.449219 173.246094 255.871094 172.679688 256.453125 172.394531 C 256.644531 172.230469 256.890625 172.097656 257.179688 172 C 258.152344 171.691406 259.144531 171.511719 260.164062 171.429688 C 259.769531 168.59375 259.550781 165.738281 258.800781 162.996094 C 258.4375 162.761719 258.128906 162.410156 257.960938 161.878906 C 246.789062 126.742188 212.660156 101.816406 175.195312 109.558594 C 161.660156 112.355469 147.167969 117.425781 136.578125 126.621094 C 126.59375 135.300781 120.730469 146.515625 117.183594 159.046875 C 117.523438 159.464844 117.660156 160.050781 117.378906 160.753906 C 115.992188 164.164062 115.785156 167.820312 115.296875 171.429688 C 116.300781 171.511719 117.304688 171.691406 118.273438 172 C 118.570312 172.097656 118.800781 172.230469 119.003906 172.394531 C 119.585938 172.679688 120.011719 173.246094 119.941406 174.136719 C 119.222656 183.9375 119.441406 193.515625 122.714844 202.820312 C 130.683594 202.453125 136.359375 216.796875 137.867188 223.15625 C 139.414062 229.726562 139.984375 236.667969 142.023438 243.117188 C 144.359375 250.535156 148.28125 258.097656 145.8125 265.96875 C 144.503906 270.148438 139.15625 275.636719 134.351562 273.597656 C 133.414062 273.191406 132.570312 272.660156 131.808594 272.023438 C 131.242188 273.164062 130.386719 274.167969 129.3125 274.996094 C 128.050781 276.085938 126.496094 276.78125 124.820312 277.089844 C 122.96875 277.539062 121.082031 277.523438 119.453125 276.957031 C 117.28125 276.453125 115.21875 275.433594 113.613281 273.980469 C 97.457031 273.042969 94.546875 231.667969 94.316406 220.816406 C 94.304688 220.789062 94.316406 220.761719 94.316406 220.734375 C 94.261719 220.433594 94.273438 220.125 94.382812 219.773438 C 95.339844 216.699219 96.773438 214.1875 99.234375 212.894531 C 93.921875 195.050781 97.917969 175.804688 102.820312 158.308594 C 102.859375 158.144531 102.925781 158 103 157.859375 C 103.1875 157.054688 103.808594 156.367188 104.894531 156.367188 C 105.003906 156.367188 105.117188 156.367188 105.226562 156.378906 C 108.621094 139.429688 116.546875 123.535156 130.914062 113.324219 C 145.039062 103.273438 162.742188 98.5 179.867188 97.121094 C 198.402344 95.613281 218.894531 98.039062 234.972656 108.089844 C 242.238281 112.644531 248.863281 118.484375 253.304688 125.902344 C 259.210938 135.757812 265.433594 145.46875 269.082031 156.433594 C 269.574219 156.378906 270.0625 156.367188 270.5625 156.367188 C 271.636719 156.367188 272.257812 157.054688 272.464844 157.859375 C 272.53125 158 272.585938 158.144531 272.640625 158.308594 C 277.515625 175.707031 281.480469 194.828125 276.308594 212.597656 C 278.847656 213.886719 280.3125 217.335938 281.074219 219.773438 " fill-opacity="1" fill-rule="nonzero"/></g><path fill="#000000" d="M 252.574219 198.808594 C 252.628906 201.433594 248.550781 201.433594 248.496094 198.808594 C 248.375 192.851562 248.144531 186.902344 247.207031 181.015625 C 246.800781 178.4375 250.722656 177.335938 251.132812 179.933594 C 252.136719 186.175781 252.433594 192.480469 252.574219 198.808594 " fill-opacity="1" fill-rule="nonzero"/><path fill="#000000" d="M 246.269531 186.492188 C 247.042969 190.1875 246.921875 193.921875 246.910156 197.671875 C 246.898438 200.304688 242.820312 200.304688 242.832031 197.671875 C 242.847656 194.300781 243.039062 190.894531 242.347656 187.578125 C 241.800781 185.007812 245.730469 183.925781 246.269531 186.492188 " fill-opacity="1" fill-rule="nonzero"/><path fill="#000000" d="M 239.933594 183.433594 C 241.113281 189.957031 241.136719 196.503906 241.136719 203.105469 C 241.136719 205.738281 237.0625 205.738281 237.0625 203.105469 C 237.0625 196.878906 237.117188 190.675781 236.003906 184.523438 C 235.546875 181.953125 239.46875 180.851562 239.933594 183.433594 " fill-opacity="1" fill-rule="nonzero"/><path fill="#000000" d="M 231.96875 175.492188 C 232.175781 172.882812 236.246094 172.871094 236.042969 175.492188 C 235.164062 186.914062 235.867188 198.351562 235.933594 209.785156 C 235.953125 212.421875 231.878906 212.410156 231.867188 209.785156 C 231.792969 198.351562 231.085938 186.914062 231.96875 175.492188 " fill-opacity="1" fill-rule="nonzero"/><path fill="#000000" d="M 230.273438 173.792969 C 230.289062 186.507812 230.382812 199.21875 230.382812 211.933594 C 230.382812 214.570312 226.3125 214.570312 226.3125 211.933594 C 226.3125 199.21875 226.214844 186.507812 226.203125 173.792969 C 226.203125 171.171875 230.273438 171.171875 230.273438 173.792969 " fill-opacity="1" fill-rule="nonzero"/><path fill="#000000" d="M 225.113281 183.664062 C 225.863281 188.433594 225.65625 193.199219 225.628906 198.011719 C 225.617188 200.648438 221.542969 200.648438 221.554688 198.011719 C 221.585938 193.59375 221.871094 189.140625 221.175781 184.753906 C 220.78125 182.171875 224.707031 181.070312 225.113281 183.664062 " fill-opacity="1" fill-rule="nonzero"/><path fill="#000000" d="M 218.773438 182.988281 C 219.953125 189.480469 219.359375 195.984375 219.304688 202.546875 C 219.273438 205.167969 215.203125 205.167969 215.226562 202.546875 C 215.269531 196.394531 215.964844 190.175781 214.84375 184.078125 C 214.371094 181.492188 218.300781 180.410156 218.773438 182.988281 " fill-opacity="1" fill-rule="nonzero"/><path fill="#000000" d="M 212.660156 173.589844 C 214.332031 185.28125 213.488281 197.007812 213.410156 208.769531 C 213.398438 211.386719 209.320312 211.40625 209.332031 208.769531 C 209.417969 197.398438 210.355469 185.988281 208.738281 174.675781 C 208.371094 172.109375 212.296875 170.996094 212.660156 173.589844 " fill-opacity="1" fill-rule="nonzero"/><path fill="#000000" d="M 208.097656 207.304688 C 208.261719 209.921875 204.1875 209.90625 204.023438 207.304688 C 203.359375 197.238281 203.140625 187.15625 203.226562 177.082031 C 203.25 174.445312 207.324219 174.445312 207.296875 177.082031 C 207.214844 187.15625 207.433594 197.238281 208.097656 207.304688 " fill-opacity="1" fill-rule="nonzero"/><path fill="#000000" d="M 201.527344 217.933594 C 201.742188 220.554688 197.671875 220.53125 197.453125 217.933594 C 196.140625 201.925781 197.441406 185.855469 196.558594 169.828125 C 196.40625 167.203125 200.480469 167.21875 200.628906 169.828125 C 201.511719 185.855469 200.207031 201.925781 201.527344 217.933594 " fill-opacity="1" fill-rule="nonzero"/><path fill="#000000" d="M 194.863281 204.695312 C 195.171875 207.304688 191.097656 207.261719 190.785156 204.695312 C 189.5625 194.804688 190.445312 184.851562 189.984375 174.921875 C 189.859375 172.296875 193.9375 172.308594 194.058594 174.921875 C 194.519531 184.851562 193.636719 194.804688 194.863281 204.695312 " fill-opacity="1" fill-rule="nonzero"/><path fill="#000000" d="M 186.710938 183.300781 C 187.621094 190.144531 187.09375 197.019531 187.050781 203.902344 C 187.027344 206.523438 182.949219 206.523438 182.980469 203.902344 C 183.015625 197.019531 183.546875 190.144531 182.640625 183.300781 C 182.289062 180.707031 186.355469 180.730469 186.710938 183.300781 " fill-opacity="1" fill-rule="nonzero"/><path fill="#000000" d="M 181.277344 208.320312 C 181.574219 210.929688 177.503906 210.886719 177.207031 208.320312 C 176.1875 199.613281 176.921875 190.894531 176.976562 182.171875 C 176.988281 179.539062 181.066406 179.539062 181.050781 182.171875 C 180.992188 190.894531 180.261719 199.613281 181.277344 208.320312 " fill-opacity="1" fill-rule="nonzero"/><path fill="#000000" d="M 175.722656 214.429688 C 175.753906 217.050781 171.679688 217.050781 171.652344 214.429688 C 171.570312 202.015625 171.761719 189.601562 171.777344 177.191406 C 171.777344 174.566406 175.84375 174.566406 175.84375 177.191406 C 175.832031 189.601562 175.644531 202.015625 175.722656 214.429688 " fill-opacity="1" fill-rule="nonzero"/><path fill="#000000" d="M 169.164062 224.050781 C 169.273438 226.683594 165.199219 226.671875 165.097656 224.050781 C 164.347656 205.644531 164.523438 187.222656 164.644531 168.804688 C 164.65625 166.1875 168.734375 166.1875 168.722656 168.804688 C 168.601562 187.222656 168.417969 205.644531 169.164062 224.050781 " fill-opacity="1" fill-rule="nonzero"/><path fill="#000000" d="M 158.871094 171.757812 C 159.050781 169.144531 163.136719 169.132812 162.949219 171.757812 C 161.980469 185.027344 162.15625 198.308594 162.488281 211.59375 C 162.554688 214.226562 158.476562 214.214844 158.410156 211.59375 C 158.089844 198.308594 157.910156 185.027344 158.871094 171.757812 " fill-opacity="1" fill-rule="nonzero"/><path fill="#000000" d="M 156.835938 184.089844 C 157.042969 189.226562 156.957031 194.355469 156.945312 199.492188 C 156.945312 202.113281 152.867188 202.113281 152.867188 199.492188 C 152.886719 194.355469 152.964844 189.226562 152.765625 184.089844 C 152.65625 181.46875 156.726562 181.480469 156.835938 184.089844 " fill-opacity="1" fill-rule="nonzero"/><path fill="#000000" d="M 150.835938 176.507812 C 150.835938 187.417969 150.835938 198.242188 150.835938 209.109375 C 150.835938 211.824219 146.761719 211.824219 146.761719 209.109375 C 146.761719 198.242188 146.761719 187.417969 146.761719 176.507812 C 146.761719 173.886719 150.835938 173.886719 150.835938 176.507812 " fill-opacity="1" fill-rule="nonzero"/><path fill="#000000" d="M 144.765625 184.113281 C 145.605469 189.457031 145.320312 194.78125 145.296875 200.171875 C 145.28125 202.796875 141.207031 202.796875 141.21875 200.171875 C 141.25 195.171875 141.625 190.144531 140.84375 185.203125 C 140.433594 182.636719 144.359375 181.523438 144.765625 184.113281 " fill-opacity="1" fill-rule="nonzero"/><path fill="#000000" d="M 139.972656 177.867188 C 139.972656 187.375 139.972656 196.878906 139.972656 206.390625 C 139.972656 209.109375 135.898438 209.109375 135.898438 206.390625 C 135.898438 196.878906 135.898438 177.867188 135.898438 177.867188 C 135.898438 175.152344 139.972656 175.152344 139.972656 177.867188 " fill-opacity="1" fill-rule="nonzero"/><path fill="#000000" d="M 133.457031 182.527344 C 134.375 189.007812 134.011719 195.457031 133.96875 201.980469 C 133.957031 204.597656 129.878906 204.613281 129.898438 201.980469 C 129.933594 195.851562 130.398438 189.699219 129.515625 183.617188 C 129.148438 181.046875 133.074219 179.945312 133.457031 182.527344 " fill-opacity="1" fill-rule="nonzero"/><path fill="#000000" d="M 128.765625 188.734375 C 128.765625 190.089844 128.753906 192.890625 128.664062 195.050781 C 128.523438 197.660156 124.449219 197.539062 124.585938 194.902344 C 124.679688 192.753906 124.695312 188.734375 124.695312 188.734375 C 124.695312 186.019531 128.765625 186.019531 128.765625 188.734375 " fill-opacity="1" fill-rule="nonzero"/><g fill="#000000" fill-opacity="1"><g transform="translate(187.276706, 202.64907)"><g><path d="M 0.40625 -0.09375 L 0.4375 -0.03125 C 0.414062 -0.0195312 0.394531 -0.0078125 0.375 0 C 0.351562 0.0078125 0.328125 0.015625 0.296875 0.015625 C 0.179688 0.015625 0.125 -0.0390625 0.125 -0.15625 L 0.125 -0.53125 L 0.03125 -0.53125 L 0.03125 -0.59375 L 0.125 -0.59375 L 0.125 -0.71875 L 0.21875 -0.734375 L 0.21875 -0.59375 L 0.40625 -0.59375 L 0.40625 -0.53125 L 0.21875 -0.53125 L 0.21875 -0.171875 C 0.21875 -0.0976562 0.25 -0.0625 0.3125 -0.0625 C 0.34375 -0.0625 0.367188 -0.0703125 0.390625 -0.09375 Z M 0.40625 -0.09375 "/></g></g></g></svg>