<svg xmlns="http://www.w3.org/2000/svg" xmlns:xlink="http://www.w3.org/1999/xlink" width="500" zoomAndPan="magnify" viewBox="0 0 375 374.999991" height="500" preserveAspectRatio="xMidYMid meet" version="1.0"><defs><g/><clipPath id="0a2f2fa042"><path d="M 82.117188 181 L 90 181 L 90 188 L 82.117188 188 Z M 82.117188 181 " clip-rule="nonzero"/></clipPath><clipPath id="02507bd0a7"><path d="M 154 152.128906 L 187.867188 152.128906 L 187.867188 222.628906 L 154 222.628906 Z M 154 152.128906 " clip-rule="nonzero"/></clipPath><clipPath id="3a1776595a"><path d="M 112 184 L 165 184 L 165 222.628906 L 112 222.628906 Z M 112 184 " clip-rule="nonzero"/></clipPath></defs><g clip-path="url(#0a2f2fa042)"><path fill="#f7941e" d="M 86.6875 187.546875 C 88.230469 187.546875 89.484375 186.296875 89.484375 184.753906 C 89.484375 183.207031 88.230469 181.957031 86.6875 181.957031 L 85.632812 181.957031 C 84.632812 181.957031 83.710938 182.492188 83.210938 183.355469 C 82.136719 185.21875 83.480469 187.546875 85.632812 187.546875 L 86.6875 187.546875 " fill-opacity="1" fill-rule="nonzero"/></g><path fill="#f7941e" d="M 95.5625 187.546875 L 106.40625 187.546875 C 107.953125 187.546875 109.203125 186.296875 109.203125 184.753906 C 109.203125 183.207031 107.953125 181.957031 106.40625 181.957031 L 95.5625 181.957031 C 94.019531 181.957031 92.769531 183.207031 92.769531 184.753906 C 92.769531 186.296875 94.019531 187.546875 95.5625 187.546875 " fill-opacity="1" fill-rule="nonzero"/><path fill="#f7941e" d="M 93.265625 199.234375 C 93.328125 199.238281 93.390625 199.242188 93.453125 199.242188 L 113.683594 199.242188 C 115.230469 199.242188 116.480469 197.988281 116.480469 196.445312 C 116.480469 194.902344 115.230469 193.648438 113.683594 193.648438 L 98.914062 193.648438 C 96.851562 195.320312 94.960938 197.191406 93.265625 199.234375 " fill-opacity="1" fill-rule="nonzero"/><g clip-path="url(#02507bd0a7)"><path fill="#f7941e" d="M 186.492188 187.949219 L 173.652344 165.710938 C 175.417969 163.976562 180.523438 158.457031 181.109375 152.132812 C 181.109375 152.136719 176.109375 169.316406 154.742188 169.054688 L 164.953125 192.757812 C 167.042969 197.605469 165.816406 203.050781 162.277344 206.554688 C 161.71875 207.109375 161.101562 207.617188 160.429688 208.0625 C 162.515625 212.605469 163.777344 217.601562 164.023438 222.867188 L 166.332031 222.867188 C 168.289062 222.867188 170.097656 221.824219 171.078125 220.128906 L 186.492188 193.425781 C 187.472656 191.734375 187.472656 189.644531 186.492188 187.949219 " fill-opacity="1" fill-rule="nonzero"/></g><path fill="#f7941e" d="M 108.019531 175.855469 L 118.066406 175.855469 C 119.609375 175.855469 120.863281 174.601562 120.863281 173.058594 C 120.863281 171.515625 119.609375 170.265625 118.066406 170.265625 L 107.949219 170.265625 C 106.792969 170.265625 105.742188 170.976562 105.328125 172.089844 C 104.5625 174.140625 105.832031 175.855469 108.019531 175.855469 " fill-opacity="1" fill-rule="nonzero"/><path fill="#f7941e" d="M 91.03125 197.84375 C 91.5 198.652344 92.339844 199.171875 93.265625 199.234375 C 94.960938 197.191406 96.851562 195.320312 98.914062 193.648438 L 93.453125 193.648438 C 91.300781 193.648438 89.957031 195.980469 91.03125 197.84375 " fill-opacity="1" fill-rule="nonzero"/><g clip-path="url(#3a1776595a)"><path fill="#f7941e" d="M 158.433594 209.148438 C 152.109375 211.875 144.769531 208.957031 142.042969 202.628906 C 140.160156 198.257812 140.972656 193.398438 143.742188 189.917969 C 137.933594 186.628906 131.21875 184.753906 124.070312 184.753906 C 120.214844 184.753906 116.492188 185.296875 112.964844 186.316406 C 113.46875 187.058594 114.320312 187.546875 115.285156 187.546875 L 132.921875 187.546875 C 134.574219 187.546875 135.984375 188.835938 136.042969 190.488281 C 136.105469 192.222656 134.714844 193.648438 132.992188 193.648438 L 122.5625 193.648438 C 121.019531 193.648438 119.765625 194.902344 119.765625 196.445312 C 119.765625 197.988281 121.019531 199.242188 122.5625 199.242188 L 129.007812 199.242188 C 130.664062 199.242188 132.074219 200.527344 132.132812 202.179688 C 132.191406 203.917969 130.804688 205.34375 129.082031 205.34375 L 122.398438 205.34375 C 120.210938 205.34375 118.941406 207.058594 119.707031 209.109375 C 120.121094 210.222656 121.171875 210.933594 122.328125 210.933594 L 137.144531 210.933594 C 138.796875 210.933594 140.207031 212.21875 140.265625 213.875 C 140.328125 215.609375 138.9375 217.035156 137.21875 217.035156 L 128.972656 217.035156 L 130.757812 220.128906 C 131.738281 221.824219 133.546875 222.867188 135.503906 222.867188 L 164.023438 222.867188 C 163.777344 217.601562 162.515625 212.605469 160.429688 208.0625 C 159.808594 208.476562 159.144531 208.839844 158.433594 209.148438 " fill-opacity="1" fill-rule="nonzero"/></g><path fill="#f7941e" d="M 143.742188 189.917969 C 144.980469 188.363281 146.605469 187.078125 148.5625 186.238281 C 149.617188 185.78125 150.703125 185.484375 151.789062 185.335938 C 153.597656 185.082031 155.410156 185.238281 157.109375 185.753906 L 151.15625 171.925781 L 146.964844 162.207031 C 146.964844 162.207031 158.773438 163.152344 169.421875 159.464844 C 168.523438 158.855469 167.453125 158.511719 166.332031 158.511719 L 135.503906 158.511719 C 133.546875 158.511719 131.738281 159.554688 130.757812 161.25 L 129.078125 164.160156 L 135.261719 164.160156 C 136.917969 164.160156 138.328125 165.449219 138.386719 167.101562 C 138.445312 168.835938 137.058594 170.265625 135.335938 170.265625 L 126.945312 170.265625 C 125.398438 170.265625 124.148438 171.515625 124.148438 173.058594 C 124.148438 174.601562 125.398438 175.855469 126.945312 175.855469 L 145.207031 175.855469 C 146.859375 175.855469 148.269531 177.140625 148.328125 178.796875 C 148.390625 180.53125 147 181.957031 145.28125 181.957031 L 115.285156 181.957031 C 113.742188 181.957031 112.488281 183.207031 112.488281 184.753906 C 112.488281 185.332031 112.664062 185.867188 112.964844 186.316406 C 116.492188 185.296875 120.214844 184.753906 124.070312 184.753906 C 131.21875 184.753906 137.933594 186.628906 143.742188 189.917969 " fill-opacity="1" fill-rule="nonzero"/><g fill="#ffffff" fill-opacity="1"><g transform="translate(191.999992, 201.565108)"><g><path d="M 16.3125 -12.015625 C 17.90625 -13.125 18.890625 -14.953125 18.890625 -16.90625 C 18.890625 -20.25 15.953125 -22.765625 12.015625 -22.765625 L 2.609375 -22.765625 L 2.609375 0.03125 L 12.28125 0.03125 C 16.25 0.03125 19.46875 -2.890625 19.46875 -6.546875 C 19.46875 -8.984375 18.296875 -10.9375 16.3125 -12.015625 Z M 14.09375 -16.15625 C 14.09375 -14.71875 13.09375 -13.703125 11.5625 -13.703125 L 7.421875 -13.703125 L 7.421875 -18.5625 L 11.5625 -18.5625 C 13.09375 -18.5625 14.09375 -17.578125 14.09375 -16.15625 Z M 11.8125 -4.5 L 7.421875 -4.5 L 7.421875 -9.609375 L 11.8125 -9.609375 C 13.453125 -9.609375 14.515625 -8.53125 14.515625 -7.0625 C 14.515625 -5.5625 13.453125 -4.5 11.8125 -4.5 Z M 11.8125 -4.5 "/></g></g></g><g fill="#ffffff" fill-opacity="1"><g transform="translate(214.009571, 201.565108)"><g><path d="M 13.421875 0.515625 C 20.34375 0.515625 25.53125 -4.59375 25.53125 -11.390625 C 25.53125 -18.171875 20.34375 -23.28125 13.421875 -23.28125 C 6.453125 -23.28125 1.234375 -18.140625 1.234375 -11.390625 C 1.234375 -4.625 6.453125 0.515625 13.421875 0.515625 Z M 13.421875 -4.140625 C 9.34375 -4.140625 6.25 -7.296875 6.25 -11.390625 C 6.25 -15.5 9.34375 -18.625 13.421875 -18.625 C 17.484375 -18.625 20.515625 -15.53125 20.515625 -11.390625 C 20.515625 -7.265625 17.484375 -4.140625 13.421875 -4.140625 Z M 13.421875 -4.140625 "/></g></g></g><g fill="#ffffff" fill-opacity="1"><g transform="translate(241.912211, 201.565108)"><g><path d="M 13.421875 0.515625 C 20.34375 0.515625 25.53125 -4.59375 25.53125 -11.390625 C 25.53125 -18.171875 20.34375 -23.28125 13.421875 -23.28125 C 6.453125 -23.28125 1.234375 -18.140625 1.234375 -11.390625 C 1.234375 -4.625 6.453125 0.515625 13.421875 0.515625 Z M 13.421875 -4.140625 C 9.34375 -4.140625 6.25 -7.296875 6.25 -11.390625 C 6.25 -15.5 9.34375 -18.625 13.421875 -18.625 C 17.484375 -18.625 20.515625 -15.53125 20.515625 -11.390625 C 20.515625 -7.265625 17.484375 -4.140625 13.421875 -4.140625 Z M 13.421875 -4.140625 "/></g></g></g><g fill="#ffffff" fill-opacity="1"><g transform="translate(269.814852, 201.565108)"><g><path d="M 17.03125 -22.796875 L 17.03125 -8.890625 L 7.03125 -22.796875 L 2.609375 -22.796875 L 2.609375 0 L 7.421875 0 L 7.421875 -14.234375 L 17.75 0 L 21.875 0 L 21.875 -22.796875 Z M 17.03125 -22.796875 "/></g></g></g></svg>