<svg xmlns="http://www.w3.org/2000/svg" xmlns:xlink="http://www.w3.org/1999/xlink" width="500" zoomAndPan="magnify" viewBox="0 0 375 374.999991" height="500" preserveAspectRatio="xMidYMid meet" version="1.0"><defs><g/><clipPath id="43da57ea05"><path d="M 215 137.71875 L 261.839844 137.71875 L 261.839844 237.46875 L 215 237.46875 Z M 215 137.71875 " clip-rule="nonzero"/></clipPath><clipPath id="7d7910d962"><path d="M 156 183 L 229 183 L 229 237.46875 L 156 237.46875 Z M 156 183 " clip-rule="nonzero"/></clipPath></defs><path fill="#f7941e" d="M 119.777344 187.566406 C 121.949219 187.566406 123.710938 185.804688 123.710938 183.632812 C 123.710938 181.457031 121.949219 179.699219 119.777344 179.699219 L 118.292969 179.699219 C 116.886719 179.699219 115.585938 180.449219 114.886719 181.664062 L 114.882812 181.664062 C 113.371094 184.285156 115.261719 187.566406 118.292969 187.566406 L 119.777344 187.566406 " fill-opacity="1" fill-rule="nonzero"/><path fill="#f7941e" d="M 132.269531 187.566406 L 147.53125 187.566406 C 149.703125 187.566406 151.464844 185.804688 151.464844 183.632812 C 151.464844 181.457031 149.703125 179.699219 147.53125 179.699219 L 132.269531 179.699219 C 130.097656 179.699219 128.335938 181.457031 128.335938 183.632812 C 128.335938 185.804688 130.097656 187.566406 132.269531 187.566406 " fill-opacity="1" fill-rule="nonzero"/><path fill="#f7941e" d="M 129.035156 204.011719 C 129.121094 204.019531 129.210938 204.019531 129.300781 204.019531 L 157.773438 204.019531 C 159.945312 204.019531 161.707031 202.261719 161.707031 200.089844 C 161.707031 197.917969 159.945312 196.152344 157.773438 196.152344 L 136.984375 196.152344 C 134.082031 198.503906 131.417969 201.140625 129.035156 204.011719 " fill-opacity="1" fill-rule="nonzero"/><g clip-path="url(#43da57ea05)"><path fill="#f7941e" d="M 260.242188 188.132812 L 242.171875 156.832031 C 244.65625 154.390625 251.839844 146.625 252.664062 137.722656 C 252.660156 137.726562 245.628906 161.90625 215.554688 161.539062 L 229.925781 194.894531 C 232.867188 201.71875 231.140625 209.382812 226.160156 214.316406 C 225.375 215.097656 224.503906 215.808594 223.5625 216.4375 C 226.496094 222.828125 228.273438 229.863281 228.617188 237.273438 L 231.871094 237.273438 C 234.625 237.273438 237.167969 235.804688 238.546875 233.417969 L 260.242188 195.839844 C 261.621094 193.457031 261.621094 190.515625 260.242188 188.132812 " fill-opacity="1" fill-rule="nonzero"/></g><path fill="#f7941e" d="M 149.796875 171.109375 L 163.941406 171.109375 C 166.113281 171.109375 167.875 169.347656 167.875 167.175781 C 167.875 165.003906 166.113281 163.242188 163.941406 163.242188 L 149.699219 163.242188 C 148.074219 163.242188 146.59375 164.242188 146.007812 165.808594 C 144.933594 168.695312 146.71875 171.109375 149.796875 171.109375 " fill-opacity="1" fill-rule="nonzero"/><path fill="#f7941e" d="M 125.890625 202.054688 C 126.550781 203.195312 127.734375 203.925781 129.035156 204.011719 C 131.417969 201.140625 134.082031 198.503906 136.984375 196.152344 L 129.300781 196.152344 C 126.269531 196.152344 124.378906 199.433594 125.890625 202.054688 " fill-opacity="1" fill-rule="nonzero"/><g clip-path="url(#7d7910d962)"><path fill="#f7941e" d="M 220.75 217.964844 C 211.847656 221.800781 201.519531 217.695312 197.683594 208.789062 C 195.03125 202.636719 196.175781 195.800781 200.074219 190.898438 C 191.898438 186.273438 182.453125 183.632812 172.386719 183.632812 C 166.964844 183.632812 161.722656 184.398438 156.761719 185.828125 C 157.46875 186.875 158.664062 187.566406 160.023438 187.566406 L 184.84375 187.566406 C 187.175781 187.566406 189.15625 189.375 189.238281 191.703125 C 189.328125 194.144531 187.371094 196.152344 184.949219 196.152344 L 170.265625 196.152344 C 168.09375 196.152344 166.332031 197.917969 166.332031 200.089844 C 166.332031 202.261719 168.09375 204.019531 170.265625 204.019531 L 179.339844 204.019531 C 181.667969 204.019531 183.652344 205.832031 183.734375 208.160156 C 183.820312 210.601562 181.867188 212.613281 179.441406 212.613281 L 170.035156 212.613281 C 166.957031 212.613281 165.171875 215.023438 166.246094 217.910156 C 166.828125 219.476562 168.308594 220.476562 169.933594 220.476562 L 190.789062 220.476562 C 193.117188 220.476562 195.101562 222.289062 195.183594 224.617188 C 195.269531 227.058594 193.316406 229.066406 190.890625 229.066406 L 179.289062 229.066406 L 181.800781 233.417969 C 183.179688 235.804688 185.722656 237.273438 188.476562 237.273438 L 228.617188 237.273438 C 228.273438 229.863281 226.496094 222.828125 223.5625 216.4375 C 222.6875 217.019531 221.75 217.53125 220.75 217.964844 " fill-opacity="1" fill-rule="nonzero"/></g><path fill="#f7941e" d="M 200.074219 190.898438 C 201.816406 188.710938 204.105469 186.90625 206.855469 185.722656 C 208.34375 185.082031 209.871094 184.660156 211.402344 184.449219 C 213.945312 184.097656 216.496094 184.316406 218.886719 185.042969 L 210.507812 165.582031 L 204.613281 151.902344 C 204.613281 151.902344 221.230469 153.230469 236.214844 148.042969 C 234.953125 147.183594 233.445312 146.699219 231.871094 146.699219 L 188.476562 146.699219 C 185.722656 146.699219 183.179688 148.167969 181.800781 150.550781 L 179.433594 154.652344 L 188.140625 154.652344 C 190.46875 154.652344 192.453125 156.460938 192.535156 158.789062 C 192.621094 161.234375 190.667969 163.242188 188.242188 163.242188 L 176.433594 163.242188 C 174.261719 163.242188 172.5 165.003906 172.5 167.175781 C 172.5 169.347656 174.261719 171.109375 176.433594 171.109375 L 202.132812 171.109375 C 204.464844 171.109375 206.445312 172.917969 206.53125 175.246094 C 206.617188 177.691406 204.664062 179.699219 202.238281 179.699219 L 160.023438 179.699219 C 157.851562 179.699219 156.089844 181.457031 156.089844 183.632812 C 156.089844 184.445312 156.335938 185.203125 156.761719 185.828125 C 161.722656 184.398438 166.964844 183.632812 172.386719 183.632812 C 182.453125 183.632812 191.898438 186.273438 200.074219 190.898438 " fill-opacity="1" fill-rule="nonzero"/><g fill="#000000" fill-opacity="1"><g transform="translate(214.603955, 196.197899)"><g><path d="M 0.359375 0.015625 C 0.316406 0.015625 0.28125 0.0078125 0.25 0 C 0.21875 -0.0195312 0.195312 -0.046875 0.1875 -0.078125 L 0.171875 -0.078125 L 0.171875 0 L 0.09375 0 L 0.09375 -0.75 L 0.171875 -0.75 L 0.171875 -0.453125 L 0.1875 -0.453125 C 0.226562 -0.515625 0.285156 -0.546875 0.359375 -0.546875 C 0.398438 -0.546875 0.4375 -0.535156 0.46875 -0.515625 C 0.507812 -0.492188 0.535156 -0.460938 0.546875 -0.421875 C 0.566406 -0.378906 0.578125 -0.328125 0.578125 -0.265625 C 0.578125 -0.203125 0.566406 -0.148438 0.546875 -0.109375 C 0.535156 -0.0664062 0.507812 -0.0351562 0.46875 -0.015625 C 0.4375 0.00390625 0.398438 0.015625 0.359375 0.015625 Z M 0.34375 -0.0625 C 0.445312 -0.0625 0.5 -0.128906 0.5 -0.265625 C 0.5 -0.335938 0.484375 -0.390625 0.453125 -0.421875 C 0.429688 -0.460938 0.394531 -0.484375 0.34375 -0.484375 C 0.289062 -0.484375 0.25 -0.460938 0.21875 -0.421875 C 0.1875 -0.390625 0.171875 -0.335938 0.171875 -0.265625 C 0.171875 -0.203125 0.1875 -0.148438 0.21875 -0.109375 C 0.25 -0.078125 0.289062 -0.0625 0.34375 -0.0625 Z M 0.34375 -0.0625 "/></g></g><g transform="translate(215.246664, 196.197899)"><g><path d="M 0.3125 0.015625 C 0.257812 0.015625 0.210938 0.00390625 0.171875 -0.015625 C 0.140625 -0.0351562 0.113281 -0.0664062 0.09375 -0.109375 C 0.0703125 -0.160156 0.0625 -0.210938 0.0625 -0.265625 C 0.0625 -0.328125 0.0703125 -0.378906 0.09375 -0.421875 C 0.113281 -0.460938 0.140625 -0.492188 0.171875 -0.515625 C 0.210938 -0.535156 0.257812 -0.546875 0.3125 -0.546875 C 0.363281 -0.546875 0.40625 -0.535156 0.4375 -0.515625 C 0.476562 -0.492188 0.507812 -0.460938 0.53125 -0.421875 C 0.550781 -0.378906 0.5625 -0.328125 0.5625 -0.265625 C 0.5625 -0.210938 0.550781 -0.160156 0.53125 -0.109375 C 0.507812 -0.0664062 0.476562 -0.0351562 0.4375 -0.015625 C 0.40625 0.00390625 0.363281 0.015625 0.3125 0.015625 Z M 0.3125 -0.0625 C 0.363281 -0.0625 0.398438 -0.078125 0.421875 -0.109375 C 0.453125 -0.140625 0.46875 -0.191406 0.46875 -0.265625 C 0.46875 -0.335938 0.453125 -0.390625 0.421875 -0.421875 C 0.398438 -0.460938 0.363281 -0.484375 0.3125 -0.484375 C 0.257812 -0.484375 0.21875 -0.460938 0.1875 -0.421875 C 0.15625 -0.390625 0.140625 -0.335938 0.140625 -0.265625 C 0.140625 -0.191406 0.15625 -0.140625 0.1875 -0.109375 C 0.21875 -0.078125 0.257812 -0.0625 0.3125 -0.0625 Z M 0.3125 -0.0625 "/></g></g><g transform="translate(215.864953, 196.197899)"><g><path d="M 0.3125 0.015625 C 0.257812 0.015625 0.210938 0.00390625 0.171875 -0.015625 C 0.140625 -0.0351562 0.113281 -0.0664062 0.09375 -0.109375 C 0.0703125 -0.160156 0.0625 -0.210938 0.0625 -0.265625 C 0.0625 -0.328125 0.0703125 -0.378906 0.09375 -0.421875 C 0.113281 -0.460938 0.140625 -0.492188 0.171875 -0.515625 C 0.210938 -0.535156 0.257812 -0.546875 0.3125 -0.546875 C 0.363281 -0.546875 0.40625 -0.535156 0.4375 -0.515625 C 0.476562 -0.492188 0.507812 -0.460938 0.53125 -0.421875 C 0.550781 -0.378906 0.5625 -0.328125 0.5625 -0.265625 C 0.5625 -0.210938 0.550781 -0.160156 0.53125 -0.109375 C 0.507812 -0.0664062 0.476562 -0.0351562 0.4375 -0.015625 C 0.40625 0.00390625 0.363281 0.015625 0.3125 0.015625 Z M 0.3125 -0.0625 C 0.363281 -0.0625 0.398438 -0.078125 0.421875 -0.109375 C 0.453125 -0.140625 0.46875 -0.191406 0.46875 -0.265625 C 0.46875 -0.335938 0.453125 -0.390625 0.421875 -0.421875 C 0.398438 -0.460938 0.363281 -0.484375 0.3125 -0.484375 C 0.257812 -0.484375 0.21875 -0.460938 0.1875 -0.421875 C 0.15625 -0.390625 0.140625 -0.335938 0.140625 -0.265625 C 0.140625 -0.191406 0.15625 -0.140625 0.1875 -0.109375 C 0.21875 -0.078125 0.257812 -0.0625 0.3125 -0.0625 Z M 0.3125 -0.0625 "/></g></g><g transform="translate(216.483242, 196.197899)"><g><path d="M 0.09375 0 L 0.09375 -0.53125 L 0.171875 -0.53125 L 0.171875 -0.453125 L 0.1875 -0.453125 C 0.195312 -0.484375 0.21875 -0.503906 0.25 -0.515625 C 0.28125 -0.535156 0.3125 -0.546875 0.34375 -0.546875 C 0.414062 -0.546875 0.460938 -0.53125 0.484375 -0.5 C 0.515625 -0.46875 0.53125 -0.414062 0.53125 -0.34375 L 0.53125 0 L 0.453125 0 L 0.453125 -0.34375 C 0.453125 -0.375 0.445312 -0.398438 0.4375 -0.421875 C 0.4375 -0.441406 0.425781 -0.457031 0.40625 -0.46875 C 0.382812 -0.476562 0.359375 -0.484375 0.328125 -0.484375 C 0.285156 -0.484375 0.25 -0.46875 0.21875 -0.4375 C 0.1875 -0.40625 0.171875 -0.351562 0.171875 -0.28125 L 0.171875 0 Z M 0.09375 0 "/></g></g></g></svg>