<svg xmlns="http://www.w3.org/2000/svg" xmlns:xlink="http://www.w3.org/1999/xlink" width="500" zoomAndPan="magnify" viewBox="0 0 375 374.999991" height="500" preserveAspectRatio="xMidYMid meet" version="1.0"><defs><g/><clipPath id="35f33766ad"><path d="M 112.5 154 L 118 154 L 118 221 L 112.5 221 Z M 112.5 154 " clip-rule="nonzero"/></clipPath><clipPath id="fe8777db51"><path d="M 121 134.0625 L 127 134.0625 L 127 241 L 121 241 Z M 121 134.0625 " clip-rule="nonzero"/></clipPath><clipPath id="f35ce8ffe8"><path d="M 257 180 L 262.5 180 L 262.5 195 L 257 195 Z M 257 180 " clip-rule="nonzero"/></clipPath></defs><g clip-path="url(#35f33766ad)"><path fill="#f7941e" d="M 114.980469 154.992188 C 113.609375 154.992188 112.5 156.105469 112.5 157.476562 L 112.5 217.566406 C 112.5 218.9375 113.609375 220.046875 114.980469 220.046875 C 116.351562 220.046875 117.460938 218.9375 117.460938 217.566406 L 117.460938 157.476562 C 117.460938 156.105469 116.351562 154.992188 114.980469 154.992188 " fill-opacity="1" fill-rule="nonzero"/></g><g clip-path="url(#fe8777db51)"><path fill="#f7941e" d="M 124.042969 134.078125 C 122.671875 134.078125 121.5625 135.191406 121.5625 136.558594 L 121.5625 238.480469 C 121.5625 239.851562 122.671875 240.964844 124.042969 240.964844 C 125.414062 240.964844 126.523438 239.851562 126.523438 238.480469 L 126.523438 136.558594 C 126.523438 135.191406 125.414062 134.078125 124.042969 134.078125 " fill-opacity="1" fill-rule="nonzero"/></g><path fill="#f7941e" d="M 133.105469 146.628906 C 131.734375 146.628906 130.625 147.738281 130.625 149.109375 L 130.625 225.933594 C 130.625 227.304688 131.734375 228.414062 133.105469 228.414062 C 134.476562 228.414062 135.585938 227.304688 135.585938 225.933594 L 135.585938 149.109375 C 135.585938 147.738281 134.476562 146.628906 133.105469 146.628906 " fill-opacity="1" fill-rule="nonzero"/><path fill="#f7941e" d="M 142.167969 154.992188 C 140.796875 154.992188 139.6875 156.105469 139.6875 157.476562 L 139.6875 217.566406 C 139.6875 218.9375 140.796875 220.046875 142.167969 220.046875 C 143.539062 220.046875 144.648438 218.9375 144.648438 217.566406 L 144.648438 157.476562 C 144.648438 156.105469 143.539062 154.992188 142.167969 154.992188 " fill-opacity="1" fill-rule="nonzero"/><path fill="#f7941e" d="M 151.230469 171.726562 C 149.859375 171.726562 148.75 172.835938 148.75 174.207031 L 148.75 200.835938 C 148.75 202.207031 149.859375 203.316406 151.230469 203.316406 C 152.601562 203.316406 153.710938 202.207031 153.710938 200.835938 L 153.710938 174.207031 C 153.710938 172.835938 152.601562 171.726562 151.230469 171.726562 " fill-opacity="1" fill-rule="nonzero"/><path fill="#f7941e" d="M 160.292969 163.359375 C 158.921875 163.359375 157.8125 164.46875 157.8125 165.839844 L 157.8125 209.199219 C 157.8125 210.570312 158.921875 211.683594 160.292969 211.683594 C 161.664062 211.683594 162.773438 210.570312 162.773438 209.199219 L 162.773438 165.839844 C 162.773438 164.46875 161.664062 163.359375 160.292969 163.359375 " fill-opacity="1" fill-rule="nonzero"/><path fill="#f7941e" d="M 169.355469 175.910156 C 167.984375 175.910156 166.871094 177.019531 166.871094 178.390625 L 166.871094 196.652344 C 166.871094 198.023438 167.984375 199.132812 169.355469 199.132812 C 170.722656 199.132812 171.835938 198.023438 171.835938 196.652344 L 171.835938 178.390625 C 171.835938 177.019531 170.722656 175.910156 169.355469 175.910156 " fill-opacity="1" fill-rule="nonzero"/><path fill="#f7941e" d="M 178.417969 167.542969 C 177.046875 167.542969 175.933594 168.652344 175.933594 170.023438 L 175.933594 205.015625 C 175.933594 206.386719 177.046875 207.5 178.417969 207.5 C 179.785156 207.5 180.898438 206.386719 180.898438 205.015625 L 180.898438 170.023438 C 180.898438 168.652344 179.785156 167.542969 178.417969 167.542969 " fill-opacity="1" fill-rule="nonzero"/><path fill="#f7941e" d="M 187.480469 154.992188 C 186.109375 154.992188 184.996094 156.105469 184.996094 157.476562 L 184.996094 217.566406 C 184.996094 218.9375 186.109375 220.046875 187.480469 220.046875 C 188.851562 220.046875 189.960938 218.9375 189.960938 217.566406 L 189.960938 157.476562 C 189.960938 156.105469 188.851562 154.992188 187.480469 154.992188 " fill-opacity="1" fill-rule="nonzero"/><path fill="#f7941e" d="M 196.542969 146.628906 C 195.171875 146.628906 194.058594 147.738281 194.058594 149.109375 L 194.058594 225.933594 C 194.058594 227.304688 195.171875 228.414062 196.542969 228.414062 C 197.910156 228.414062 199.023438 227.304688 199.023438 225.933594 L 199.023438 149.109375 C 199.023438 147.738281 197.910156 146.628906 196.542969 146.628906 " fill-opacity="1" fill-rule="nonzero"/><path fill="#f7941e" d="M 205.601562 154.992188 C 204.234375 154.992188 203.121094 156.105469 203.121094 157.476562 L 203.121094 217.566406 C 203.121094 218.9375 204.234375 220.046875 205.601562 220.046875 C 206.972656 220.046875 208.085938 218.9375 208.085938 217.566406 L 208.085938 157.476562 C 208.085938 156.105469 206.972656 154.992188 205.601562 154.992188 " fill-opacity="1" fill-rule="nonzero"/><path fill="#f7941e" d="M 214.664062 171.726562 C 213.296875 171.726562 212.183594 172.835938 212.183594 174.207031 L 212.183594 200.835938 C 212.183594 202.207031 213.296875 203.316406 214.664062 203.316406 C 216.035156 203.316406 217.148438 202.207031 217.148438 200.835938 L 217.148438 174.207031 C 217.148438 172.835938 216.035156 171.726562 214.664062 171.726562 " fill-opacity="1" fill-rule="nonzero"/><path fill="#f7941e" d="M 223.730469 167.542969 C 222.359375 167.542969 221.246094 168.652344 221.246094 170.023438 L 221.246094 205.015625 C 221.246094 206.386719 222.359375 207.5 223.730469 207.5 C 225.097656 207.5 226.210938 206.386719 226.210938 205.015625 L 226.210938 170.023438 C 226.210938 168.652344 225.097656 167.542969 223.730469 167.542969 " fill-opacity="1" fill-rule="nonzero"/><path fill="#f7941e" d="M 232.789062 159.175781 C 231.421875 159.175781 230.308594 160.289062 230.308594 161.660156 L 230.308594 213.382812 C 230.308594 214.753906 231.421875 215.867188 232.789062 215.867188 C 234.160156 215.867188 235.269531 214.753906 235.269531 213.382812 L 235.269531 161.660156 C 235.269531 160.289062 234.160156 159.175781 232.789062 159.175781 " fill-opacity="1" fill-rule="nonzero"/><path fill="#f7941e" d="M 241.851562 171.726562 C 240.480469 171.726562 239.371094 172.835938 239.371094 174.207031 L 239.371094 200.835938 C 239.371094 202.207031 240.480469 203.316406 241.851562 203.316406 C 243.222656 203.316406 244.335938 202.207031 244.335938 200.835938 L 244.335938 174.207031 C 244.335938 172.835938 243.222656 171.726562 241.851562 171.726562 " fill-opacity="1" fill-rule="nonzero"/><path fill="#f7941e" d="M 250.914062 175.910156 C 249.546875 175.910156 248.433594 177.019531 248.433594 178.390625 L 248.433594 196.652344 C 248.433594 198.023438 249.546875 199.132812 250.914062 199.132812 C 252.285156 199.132812 253.398438 198.023438 253.398438 196.652344 L 253.398438 178.390625 C 253.398438 177.019531 252.285156 175.910156 250.914062 175.910156 " fill-opacity="1" fill-rule="nonzero"/><g clip-path="url(#f35ce8ffe8)"><path fill="#f7941e" d="M 259.976562 180.089844 C 258.605469 180.089844 257.496094 181.203125 257.496094 182.574219 L 257.496094 192.46875 C 257.496094 193.839844 258.605469 194.949219 259.976562 194.949219 C 261.347656 194.949219 262.457031 193.839844 262.457031 192.46875 L 262.457031 182.574219 C 262.457031 181.203125 261.347656 180.089844 259.976562 180.089844 " fill-opacity="1" fill-rule="nonzero"/></g><g fill="#f7941e" fill-opacity="1"><g transform="translate(187.188305, 179.125162)"><g><path d="M 0.09375 0 L 0.09375 -0.75 L 0.171875 -0.75 L 0.171875 -0.46875 L 0.1875 -0.453125 C 0.21875 -0.515625 0.269531 -0.546875 0.34375 -0.546875 C 0.414062 -0.546875 0.460938 -0.53125 0.484375 -0.5 C 0.515625 -0.46875 0.53125 -0.414062 0.53125 -0.34375 L 0.53125 0 L 0.453125 0 L 0.453125 -0.34375 C 0.453125 -0.375 0.445312 -0.398438 0.4375 -0.421875 C 0.4375 -0.441406 0.425781 -0.457031 0.40625 -0.46875 C 0.382812 -0.476562 0.359375 -0.484375 0.328125 -0.484375 C 0.285156 -0.484375 0.25 -0.46875 0.21875 -0.4375 C 0.1875 -0.40625 0.171875 -0.351562 0.171875 -0.28125 L 0.171875 0 Z M 0.09375 0 "/></g></g></g></svg>