<svg xmlns="http://www.w3.org/2000/svg" xmlns:xlink="http://www.w3.org/1999/xlink" width="500" zoomAndPan="magnify" viewBox="0 0 375 374.999991" height="500" preserveAspectRatio="xMidYMid meet" version="1.0"><defs><g/><clipPath id="4d8f64f8cd"><path d="M 118 106.847656 L 194 106.847656 L 194 164 L 118 164 Z M 118 106.847656 " clip-rule="nonzero"/></clipPath><clipPath id="d6f2ebd307"><path d="M 92.140625 229 L 183 229 L 183 295 L 92.140625 295 Z M 92.140625 229 " clip-rule="nonzero"/></clipPath><clipPath id="f29a59275c"><path d="M 201 152 L 247 152 L 247 298.847656 L 201 298.847656 Z M 201 152 " clip-rule="nonzero"/></clipPath><clipPath id="0f5ffec1ed"><path d="M 149 174 L 196 174 L 196 298.847656 L 149 298.847656 Z M 149 174 " clip-rule="nonzero"/></clipPath><clipPath id="b013870c44"><path d="M 249 162 L 283.390625 162 L 283.390625 167 L 249 167 Z M 249 162 " clip-rule="nonzero"/></clipPath><clipPath id="844afd7147"><path d="M 144 114 L 167 114 L 167 147 L 144 147 Z M 144 114 " clip-rule="nonzero"/></clipPath><clipPath id="6a95b429b0"><path d="M 137.90625 119.128906 L 164.078125 112.496094 L 173.660156 150.300781 L 147.488281 156.933594 Z M 137.90625 119.128906 " clip-rule="nonzero"/></clipPath><clipPath id="4851a42be3"><path d="M 137.90625 119.128906 L 164.078125 112.496094 L 173.660156 150.300781 L 147.488281 156.933594 Z M 137.90625 119.128906 " clip-rule="nonzero"/></clipPath><clipPath id="a404de59f3"><path d="M 160 132 L 171 132 L 171 153 L 160 153 Z M 160 132 " clip-rule="nonzero"/></clipPath><clipPath id="a14c0b08f3"><path d="M 137.90625 119.128906 L 164.078125 112.496094 L 173.660156 150.300781 L 147.488281 156.933594 Z M 137.90625 119.128906 " clip-rule="nonzero"/></clipPath><clipPath id="2db0740589"><path d="M 137.90625 119.128906 L 164.078125 112.496094 L 173.660156 150.300781 L 147.488281 156.933594 Z M 137.90625 119.128906 " clip-rule="nonzero"/></clipPath></defs><path fill="#000000" d="M 168.636719 203.136719 L 174.101562 226.5625 L 181.167969 226.5625 L 176.347656 205.910156 C 173.949219 205.335938 171.332031 204.460938 168.636719 203.136719 Z M 168.636719 203.136719 " fill-opacity="1" fill-rule="nonzero"/><path fill="#000000" d="M 173.054688 191.796875 L 164.683594 155.921875 L 157.980469 157.480469 L 164.195312 184.101562 C 166.761719 187.410156 169.695312 189.957031 173.054688 191.796875 Z M 173.054688 191.796875 " fill-opacity="1" fill-rule="nonzero"/><g clip-path="url(#4d8f64f8cd)"><path fill="#000000" d="M 193.578125 147.949219 L 183.984375 106.847656 L 118.945312 121.992188 L 128.535156 163.09375 Z M 193.578125 147.949219 " fill-opacity="1" fill-rule="nonzero"/></g><path fill="#000000" d="M 196.945312 249.121094 L 191.640625 286.328125 L 205.242188 286.328125 L 199.9375 249.121094 Z M 196.945312 249.121094 " fill-opacity="1" fill-rule="nonzero"/><g clip-path="url(#d6f2ebd307)"><path fill="#000000" d="M 182.277344 232.15625 L 182.277344 229.492188 L 92.347656 229.492188 L 92.347656 237.191406 L 95.191406 237.191406 L 95.191406 286.328125 L 101.796875 286.328125 L 101.796875 294.738281 L 108.402344 294.738281 L 108.402344 286.328125 L 174.554688 286.328125 Z M 182.277344 232.15625 " fill-opacity="1" fill-rule="nonzero"/></g><path fill="#000000" d="M 215.355469 229.492188 L 215.355469 237.417969 L 222.328125 286.328125 L 242.15625 286.328125 L 242.15625 294.738281 L 248.761719 294.738281 L 248.761719 286.328125 L 255.367188 286.328125 L 255.367188 237.191406 L 258.210938 237.191406 L 258.210938 229.492188 Z M 215.355469 229.492188 " fill-opacity="1" fill-rule="nonzero"/><path fill="#000000" d="M 205.980469 209.992188 L 210.082031 196.246094 C 209.875 196.214844 209.664062 196.191406 209.449219 196.191406 L 188.183594 196.191406 C 187.96875 196.191406 187.757812 196.210938 187.550781 196.242188 L 191.652344 209.992188 Z M 205.980469 209.992188 " fill-opacity="1" fill-rule="nonzero"/><g clip-path="url(#f29a59275c)"><path fill="#000000" d="M 225.25 189.539062 C 223.589844 192.546875 221.363281 194.113281 218.882812 195.128906 C 217.433594 195.710938 215.917969 196.035156 214.546875 196.203125 L 210.101562 211.109375 L 210.101562 249.121094 L 201.605469 249.121094 L 207.800781 292.566406 C 208.332031 296.28125 211.78125 298.863281 215.5 298.335938 C 219.21875 297.804688 221.808594 294.363281 221.277344 290.648438 L 213.703125 237.539062 L 213.703125 205.109375 C 217.054688 204.917969 221.675781 204.121094 226.097656 201.25 C 228.703125 199.554688 231.171875 197.078125 232.980469 193.753906 C 234.800781 190.429688 235.953125 186.3125 236.230469 181.355469 C 236.265625 180.699219 236.152344 180.074219 235.929688 179.5 L 237.449219 178.863281 L 238.507812 178.421875 L 238.1875 177.660156 L 236.082031 172.644531 L 246.101562 169.972656 L 238.902344 152.820312 L 211.390625 169.039062 L 215.234375 178.199219 L 222.125 176.363281 L 225.304688 183.949219 L 225.421875 183.898438 L 227.210938 183.148438 C 226.835938 185.867188 226.121094 187.941406 225.25 189.539062 Z M 226.191406 181.789062 L 225.785156 180.820312 L 223.734375 175.933594 L 234.472656 173.074219 L 236.007812 176.738281 L 236.34375 177.539062 L 235.027344 178.089844 C 234.28125 177.300781 233.25 176.785156 232.082031 176.71875 C 229.652344 176.582031 227.574219 178.4375 227.4375 180.859375 C 227.429688 181.007812 227.414062 181.140625 227.402344 181.28125 Z M 226.191406 181.789062 " fill-opacity="1" fill-rule="nonzero"/></g><g clip-path="url(#0f5ffec1ed)"><path fill="#000000" d="M 187.535156 211.105469 L 183.152344 196.417969 C 180.347656 196.230469 176.523438 195.515625 172.519531 193.390625 C 167.683594 190.804688 162.449219 186.210938 158.140625 177.359375 C 157.082031 175.171875 154.449219 174.257812 152.257812 175.316406 C 150.070312 176.375 149.15625 179.003906 150.214844 181.191406 C 155.210938 191.546875 161.925781 197.75 168.390625 201.160156 C 174.398438 204.34375 180.0625 205.160156 183.929688 205.257812 L 183.929688 232.277344 L 175.605469 290.648438 C 175.078125 294.367188 177.664062 297.808594 181.382812 298.335938 C 185.105469 298.867188 188.554688 296.28125 189.082031 292.566406 L 195.277344 249.121094 L 187.535156 249.121094 Z M 187.535156 211.105469 " fill-opacity="1" fill-rule="nonzero"/></g><path fill="#000000" d="M 211.203125 180.6875 C 211.203125 181.5 211.121094 182.304688 210.964844 183.097656 C 210.804688 183.894531 210.570312 184.667969 210.257812 185.421875 C 209.949219 186.171875 209.566406 186.882812 209.113281 187.558594 C 208.664062 188.234375 208.148438 188.859375 207.574219 189.433594 C 207 190.007812 206.375 190.519531 205.699219 190.972656 C 205.023438 191.421875 204.308594 191.804688 203.558594 192.117188 C 202.804688 192.425781 202.03125 192.660156 201.234375 192.820312 C 200.4375 192.976562 199.628906 193.058594 198.816406 193.058594 C 198.003906 193.058594 197.199219 192.976562 196.402344 192.820312 C 195.605469 192.660156 194.828125 192.425781 194.078125 192.117188 C 193.328125 191.804688 192.613281 191.421875 191.9375 190.972656 C 191.261719 190.519531 190.636719 190.007812 190.058594 189.433594 C 189.484375 188.859375 188.972656 188.234375 188.519531 187.558594 C 188.066406 186.882812 187.6875 186.171875 187.375 185.421875 C 187.0625 184.667969 186.828125 183.894531 186.671875 183.097656 C 186.511719 182.304688 186.433594 181.5 186.433594 180.6875 C 186.433594 179.875 186.511719 179.070312 186.671875 178.273438 C 186.828125 177.476562 187.0625 176.703125 187.375 175.953125 C 187.6875 175.203125 188.066406 174.488281 188.519531 173.8125 C 188.972656 173.136719 189.484375 172.511719 190.058594 171.9375 C 190.636719 171.363281 191.261719 170.851562 191.9375 170.398438 C 192.613281 169.949219 193.328125 169.566406 194.078125 169.257812 C 194.828125 168.945312 195.605469 168.710938 196.402344 168.550781 C 197.199219 168.394531 198.003906 168.316406 198.816406 168.316406 C 199.628906 168.316406 200.4375 168.394531 201.234375 168.550781 C 202.03125 168.710938 202.804688 168.945312 203.558594 169.257812 C 204.308594 169.566406 205.023438 169.949219 205.699219 170.398438 C 206.375 170.851562 207 171.363281 207.574219 171.9375 C 208.148438 172.511719 208.664062 173.136719 209.113281 173.8125 C 209.566406 174.488281 209.949219 175.203125 210.257812 175.953125 C 210.570312 176.703125 210.804688 177.476562 210.964844 178.273438 C 211.121094 179.070312 211.203125 179.875 211.203125 180.6875 Z M 211.203125 180.6875 " fill-opacity="1" fill-rule="nonzero"/><path fill="#000000" d="M 247.398438 158.375 L 278.027344 145.550781 L 278.722656 147.210938 L 248.097656 160.039062 Z M 247.398438 158.375 " fill-opacity="1" fill-rule="nonzero"/><path fill="#000000" d="M 243.839844 152.140625 L 268.695312 130.136719 L 269.890625 131.488281 L 245.039062 153.492188 Z M 243.839844 152.140625 " fill-opacity="1" fill-rule="nonzero"/><g clip-path="url(#b013870c44)"><path fill="#000000" d="M 249.921875 165.144531 L 283.050781 162.847656 L 283.175781 164.648438 L 250.046875 166.945312 Z M 249.921875 165.144531 " fill-opacity="1" fill-rule="nonzero"/></g><path fill="#000000" d="M 101.328125 207.683594 L 119.675781 207.683594 L 119.675781 226.011719 L 101.328125 226.011719 Z M 101.328125 207.683594 " fill-opacity="1" fill-rule="nonzero"/><path fill="#000000" d="M 123.296875 207.683594 L 141.644531 207.683594 L 141.644531 226.011719 L 123.296875 226.011719 Z M 123.296875 207.683594 " fill-opacity="1" fill-rule="nonzero"/><path fill="#000000" d="M 145.269531 207.683594 L 163.617188 207.683594 L 163.617188 226.011719 L 145.269531 226.011719 Z M 145.269531 207.683594 " fill-opacity="1" fill-rule="nonzero"/><path fill="#000000" d="M 221.78125 219.230469 L 250.859375 219.230469 L 250.859375 226.011719 L 221.78125 226.011719 Z M 221.78125 219.230469 " fill-opacity="1" fill-rule="nonzero"/><path fill="#000000" d="M 221.78125 209.332031 L 250.859375 209.332031 L 250.859375 216.113281 L 221.78125 216.113281 Z M 221.78125 209.332031 " fill-opacity="1" fill-rule="nonzero"/><g clip-path="url(#844afd7147)"><g clip-path="url(#6a95b429b0)"><g clip-path="url(#4851a42be3)"><path fill="#ffffff" d="M 160.652344 119.648438 C 158.902344 119.605469 157.515625 118.152344 157.554688 116.40625 C 157.578125 115.53125 156.882812 114.804688 156.007812 114.785156 C 155.132812 114.761719 154.410156 115.457031 154.386719 116.332031 L 153.949219 135.128906 C 153.023438 134.558594 151.941406 134.21875 150.777344 134.191406 C 147.273438 134.109375 144.351562 136.894531 144.269531 140.402344 C 144.1875 143.90625 146.976562 146.824219 150.480469 146.910156 C 153.988281 146.992188 156.90625 144.203125 156.988281 140.699219 L 157.425781 121.890625 C 158.347656 122.453125 159.421875 122.789062 160.578125 122.816406 C 162.324219 122.855469 163.710938 124.3125 163.671875 126.058594 C 163.648438 126.933594 164.34375 127.660156 165.21875 127.679688 C 166.09375 127.699219 166.820312 127.007812 166.839844 126.132812 C 166.921875 122.640625 164.144531 119.730469 160.652344 119.648438 Z M 160.652344 119.648438 " fill-opacity="1" fill-rule="nonzero"/></g></g></g><g clip-path="url(#a404de59f3)"><g clip-path="url(#a14c0b08f3)"><g clip-path="url(#2db0740589)"><path fill="#ffffff" d="M 164.742188 133.78125 C 163.789062 134.296875 162.59375 133.941406 162.078125 132.988281 C 161.820312 132.511719 161.222656 132.335938 160.746094 132.59375 C 160.269531 132.851562 160.09375 133.449219 160.351562 133.925781 L 165.90625 144.175781 C 165.230469 144.15625 164.546875 144.304688 163.910156 144.648438 C 162 145.683594 161.285156 148.082031 162.320312 149.996094 C 163.359375 151.90625 165.757812 152.621094 167.667969 151.582031 C 169.582031 150.546875 170.292969 148.148438 169.257812 146.238281 L 163.699219 135.980469 C 164.367188 136 165.050781 135.847656 165.679688 135.507812 C 166.632812 134.992188 167.828125 135.347656 168.34375 136.300781 C 168.601562 136.777344 169.199219 136.953125 169.675781 136.695312 C 170.152344 136.4375 170.332031 135.839844 170.070312 135.363281 C 169.039062 133.457031 166.648438 132.75 164.742188 133.78125 Z M 164.742188 133.78125 " fill-opacity="1" fill-rule="nonzero"/></g></g></g><g fill="#000000" fill-opacity="1"><g transform="translate(187.276706, 202.64907)"><g><path d="M 0.40625 -0.09375 L 0.4375 -0.03125 C 0.414062 -0.0195312 0.394531 -0.0078125 0.375 0 C 0.351562 0.0078125 0.328125 0.015625 0.296875 0.015625 C 0.179688 0.015625 0.125 -0.0390625 0.125 -0.15625 L 0.125 -0.53125 L 0.03125 -0.53125 L 0.03125 -0.59375 L 0.125 -0.59375 L 0.125 -0.71875 L 0.21875 -0.734375 L 0.21875 -0.59375 L 0.40625 -0.59375 L 0.40625 -0.53125 L 0.21875 -0.53125 L 0.21875 -0.171875 C 0.21875 -0.0976562 0.25 -0.0625 0.3125 -0.0625 C 0.34375 -0.0625 0.367188 -0.0703125 0.390625 -0.09375 Z M 0.40625 -0.09375 "/></g></g></g></svg>